{
  "accessors": [
    {
      "bufferView": 1,
      "componentType": 5126,
      "count": 1205,
      "max": [
        24.281499862670898,
        8.9988002777099609,
        37.954299926757812
      ],
      "min": [
        -24.52239990234375,
        -8.9996004104614258,
        0
      ],
      "type": "VEC3"
    },
    {
      "bufferView": 1,
      "byteOffset": 14460,
      "componentType": 5126,
      "count": 1205,
      "max": [
        0.99999642372131348,
        0.9999997615814209,
        1
      ],
      "min": [
        -0.9999854564666748,
        -1,
        -1
      ],
      "type": "VEC3"
    },
    {
      "bufferView": 0,
      "componentType": 5125,
      "count": 3507,
      "max": [
        1204
      ],
      "min": [
        0
      ],
      "type": "SCALAR"
    },
    {
      "bufferView": 1,
      "byteOffset": 28920,
      "componentType": 5126,
      "count": 3318,
      "max": [
        24.281499862670898,
        8.9988002777099609,
        37.954299926757812
      ],
      "min": [
        -24.52239990234375,
        -8.9996004104614258,
        1.5
      ],
      "type": "VEC3"
    },
    {
      "bufferView": 1,
      "byteOffset": 68736,
      "componentType": 5126,
      "count": 3318,
      "max": [
        1,
        1,
        0.99506634473800659
      ],
      "min": [
        -1,
        -1,
        -0.44659712910652161
      ],
      "type": "VEC3"
    },
    {
      "bufferView": 0,
      "byteOffset": 14028,
      "componentType": 5125,
      "count": 17802,
      "max": [
        3317
      ],
      "min": [
        0
      ],
      "type": "SCALAR"
    }
  ],
  "asset": {
    "extras": {
      "author": "Microsoft (https://sketchfab.com/microsoft)",
      "license": "CC-BY-4.0 (http://creativecommons.org/licenses/by/4.0/)",
      "source": "https://sketchfab.com/models/d80755755dba4169a9605f591296f53e",
      "title": "Monitor"
    },
    "generator": "Sketchfab-3.29.4-rc2",
    "version": "2.0"
  },
  "bufferViews": [
    {
      "buffer": 0,
      "byteLength": 85236,
      "byteOffset": 0,
      "name": "floatBufferViews",
      "target": 34963
    },
    {
      "buffer": 0,
      "byteLength": 108552,
      "byteOffset": 85236,
      "byteStride": 12,
      "name": "floatBufferViews",
      "target": 34962
    }
  ],
  "buffers": [
    {
      "byteLength": 193788,
      "uri": "scene.bin"
    }
  ],
  "materials": [
    {
      "doubleSided": true,
      "emissiveFactor": [
        0,
        0,
        0
      ],
      "name": "wire_224198087",
      "pbrMetallicRoughness": {
        "baseColorFactor": [
          0.0034381442999999999,
          0.0034381442999999999,
          0.0034381442999999999,
          1
        ],
        "metallicFactor": 0,
        "roughnessFactor": 0.59999999999999998
      }
    }
  ],
  "meshes": [
    {
      "primitives": [
        {
          "attributes": {
            "NORMAL": 1,
            "POSITION": 0
          },
          "indices": 2,
          "material": 0,
          "mode": 4
        }
      ]
    },
    {
      "primitives": [
        {
          "attributes": {
            "NORMAL": 4,
            "POSITION": 3
          },
          "indices": 5,
          "material": 0,
          "mode": 4
        }
      ]
    }
  ],
  "nodes": [
    {
      "children": [
        1
      ],
      "name": "RootNode (gltf orientation matrix)",
      "rotation": [
        -0.70710678118654746,
        -0,
        -0,
        0.70710678118654757
      ]
    },
    {
      "children": [
        2
      ],
      "name": "RootNode (model correction matrix)"
    },
    {
      "children": [
        3,
        4
      ],
      "name": "85334b9f59734402a7165e02a2ee8479.obj.cleaner"
    },
    {
      "mesh": 0,
      "name": ""
    },
    {
      "mesh": 1,
      "name": ""
    }
  ],
  "scene": 0,
  "scenes": [
    {
      "name": "OSG_Scene",
      "nodes": [
        0
      ]
    }
  ]
}

